<?xml version="1.0" encoding="utf-8"?>
<!-- Generator: Adobe Illustrator 24.1.1, SVG Export Plug-In . SVG Version: 6.00 Build 0)  -->
<svg version="1.1" id="Layer_1" xmlns="http://www.w3.org/2000/svg" xmlns:xlink="http://www.w3.org/1999/xlink" x="0px" y="0px"
	 viewBox="0 0 500 500" style="enable-background:new 0 0 500 500;" xml:space="preserve">
<style type="text/css">
	.st0{fill:#4285F4;}
	.st1{fill:#FFFFFF;}
</style>
<g>
	<circle class="st0" cx="250" cy="250" r="250"/>
	<path class="st1" d="M276.07,394.63h-52.25c-10.45,0-19.24-7.62-20.51-17.97L199.51,350c-3.81-1.95-7.52-4.1-11.13-6.45
		l-25.39,10.16c-9.86,3.71-20.8-0.39-25.59-9.18l-25.68-44.73c-4.98-9.28-2.83-20.31,5.08-26.56l21.58-16.8
		c-0.1-2.15-0.29-4.2-0.29-6.45c0-2.15,0.1-4.39,0.29-6.54l-21.48-16.8c-8.3-6.35-10.45-17.77-5.18-26.56l26.07-45.02
		c4.79-8.79,15.63-12.7,25.29-8.89l25.49,10.35c3.71-2.44,7.32-4.49,11.04-6.45l3.81-26.95c1.27-9.86,10.06-17.68,20.31-17.68h52.25
		c10.45,0,19.14,7.62,20.51,17.97l3.81,26.66c3.81,1.95,7.52,4.1,11.13,6.45l25.39-10.16c10.06-3.71,20.9,0.39,25.68,9.18
		l25.98,44.92c5.08,9.28,2.83,20.31-5.08,26.56l-21.48,16.8c0.1,2.15,0.29,4.2,0.29,6.45c0,2.25-0.1,4.39-0.29,6.45l21.48,16.8
		c7.91,6.35,10.16,17.38,5.18,26.27l-26.27,45.41c-4.79,8.79-15.63,12.7-25.39,8.89l-25.39-10.16c-3.71,2.44-7.32,4.49-11.04,6.45
		l-3.81,26.95C295.31,387.01,286.52,394.63,276.07,394.63z M230.57,366.41h38.96l5.18-36.04l7.52-3.13
		c6.25-2.54,12.4-6.25,18.95-11.04l6.35-4.79L341.11,325l19.43-33.89l-28.61-22.27l0.98-7.91c0.39-3.71,0.88-7.23,0.88-11.04
		s-0.39-7.52-0.88-11.04l-0.98-7.91l28.61-22.27l-19.63-33.89l-33.79,13.67l-6.35-4.98c-5.96-4.49-12.3-8.2-18.75-10.84l-7.32-3.13
		l-5.18-36.04h-38.96l-5.27,36.04l-7.52,2.93c-6.25,2.64-12.4,6.25-18.95,11.13l-6.35,4.69l-33.59-13.38l-19.63,33.69l28.61,22.27
		l-0.98,7.91c-0.39,3.71-0.88,7.52-0.88,11.13c0,3.71,0.29,7.52,0.88,11.04l0.98,7.91l-28.61,22.27L158.69,325l33.69-13.57
		l6.35,4.88c6.05,4.69,12.11,8.2,18.75,10.84l7.52,3.13L230.57,366.41z"/>
	<path class="st1" d="M250,299.41c27.25,0,49.41-22.07,49.41-49.41c0-27.25-22.07-49.41-49.41-49.41
		c-27.25,0-49.41,22.07-49.41,49.41C200.59,277.25,222.75,299.41,250,299.41z"/>
</g>
</svg>
